<?xml version="1.0" standalone="no"?>
<!DOCTYPE svg PUBLIC "-//W3C//DTD SVG 20010904//EN"
 "http://www.w3.org/TR/2001/REC-SVG-20010904/DTD/svg10.dtd">
<svg version="1.0" xmlns="http://www.w3.org/2000/svg"
 width="500.000000pt" height="500.000000pt" viewBox="0 0 500.000000 500.000000"
 preserveAspectRatio="xMidYMid meet">

<g transform="translate(0.000000,500.000000) scale(0.100000,-0.100000)"
fill="#000000" stroke="none">
<path d="M2492 4487 c9 -7 30 -20 47 -29 20 -11 41 -39 64 -85 40 -82 87 -120
167 -132 51 -8 53 -8 34 8 -31 25 -51 61 -64 117 -20 88 -90 134 -202 134 -52
-1 -60 -3 -46 -13z"/>
<path d="M2226 4477 l-39 -12 45 -12 c32 -9 54 -23 74 -49 95 -118 136 -144
234 -144 l45 0 -32 16 c-35 17 -67 61 -78 105 -9 38 -63 85 -110 98 -50 14
-89 13 -139 -2z"/>
<path d="M2802 4441 c34 -30 51 -54 58 -84 6 -23 14 -50 17 -61 11 -38 74 -95
124 -111 28 -10 53 -14 56 -11 4 3 1 6 -5 6 -19 0 -44 60 -52 126 -5 37 -17
75 -29 92 -24 34 -100 70 -168 79 l-48 6 47 -42z"/>
<path d="M1965 4422 l-40 -18 49 -13 c38 -9 61 -25 105 -70 68 -69 122 -89
198 -74 l48 9 -35 17 c-32 16 -47 33 -93 108 -34 57 -151 77 -232 41z"/>
<path d="M3059 4389 c37 -33 61 -85 61 -129 0 -67 46 -137 112 -171 49 -25 54
-24 33 8 -14 20 -18 45 -17 101 1 46 -3 83 -12 100 -28 53 -88 93 -166 111
l-43 10 32 -30z"/>
<path d="M1748 4346 c-21 -8 -50 -22 -65 -32 l-28 -19 56 -5 c55 -5 65 -10
131 -62 18 -15 54 -32 78 -39 38 -10 54 -9 105 6 l60 18 -35 8 c-23 5 -51 25
-86 63 -29 31 -64 60 -79 66 -36 14 -92 12 -137 -4z"/>
<path d="M3318 4288 c31 -34 42 -72 42 -144 0 -83 16 -120 75 -172 52 -46 75
-55 51 -20 -19 26 -20 77 -5 132 22 80 -19 154 -112 202 -60 30 -79 31 -51 2z"/>
<path d="M1535 4228 c-27 -10 -115 -65 -115 -72 0 -2 26 -2 58 -2 47 1 67 -4
98 -25 45 -29 97 -49 130 -49 13 0 49 10 81 22 l57 21 -43 13 c-24 7 -55 24
-70 37 -66 63 -127 79 -196 55z"/>
<path d="M3550 4161 c0 -6 4 -13 10 -16 22 -14 32 -88 19 -143 -10 -43 -10
-63 -1 -99 13 -48 53 -108 83 -123 16 -9 17 -7 9 19 -9 32 -1 82 20 120 7 14
11 45 8 76 -5 59 -36 107 -96 149 -41 28 -52 32 -52 17z"/>
<path d="M1315 4067 c-50 -25 -140 -107 -100 -93 53 19 103 18 150 -3 75 -33
115 -36 169 -12 26 11 58 29 72 40 l25 20 -34 -6 c-34 -5 -74 10 -127 48 -43
31 -98 33 -155 6z"/>
<path d="M3774 3971 c20 -38 20 -101 1 -148 -25 -59 -20 -132 14 -185 38 -60
51 -67 45 -26 -4 24 2 48 24 88 38 72 45 103 32 149 -10 39 -76 123 -112 142
-19 10 -19 9 -4 -20z"/>
<path d="M1159 3896 c-58 -20 -107 -65 -138 -123 l-12 -23 36 21 c37 22 38 22
192 2 56 -7 99 9 153 56 l45 39 -51 -5 c-38 -4 -60 0 -90 15 -56 28 -94 33
-135 18z"/>
<path d="M3968 3732 c3 -49 0 -67 -23 -111 -41 -78 -44 -134 -9 -207 l28 -59
6 42 c4 23 19 60 36 82 46 65 54 83 54 127 0 45 -38 129 -73 162 l-23 22 4
-58z"/>
<path d="M985 3681 c-44 -20 -72 -47 -104 -101 -32 -53 -27 -65 16 -35 33 22
48 25 126 25 106 0 141 13 190 70 39 46 42 59 9 41 -29 -15 -72 -14 -122 4
-54 19 -66 19 -115 -4z"/>
<path d="M4118 3494 c-3 -36 -12 -64 -26 -82 -61 -77 -78 -139 -56 -214 19
-65 34 -83 34 -42 0 33 21 67 63 103 62 52 75 138 33 227 -33 72 -43 73 -48 8z"/>
<path d="M1075 3473 c-15 -11 -37 -14 -95 -9 -119 8 -186 -34 -225 -143 -22
-63 -19 -66 26 -27 33 28 52 36 98 41 116 12 168 41 207 117 19 36 16 41 -11
21z"/>
<path d="M4240 3275 c-1 -44 -34 -109 -67 -133 -44 -31 -77 -114 -70 -174 8
-68 16 -75 38 -31 12 23 39 51 70 71 63 42 83 84 76 163 -3 31 -14 73 -25 95
l-21 39 -1 -30z"/>
<path d="M958 3248 c-19 -15 -48 -23 -100 -27 -40 -4 -83 -12 -95 -19 -46 -26
-85 -95 -98 -173 l-6 -44 33 37 c34 39 90 68 129 68 31 0 103 44 123 75 15 23
49 106 43 104 -1 0 -14 -10 -29 -21z"/>
<path d="M4306 3016 c-6 -34 -20 -50 -112 -134 -44 -39 -64 -87 -64 -154 0
-20 5 -40 10 -43 6 -3 10 0 10 8 0 21 50 62 102 85 79 34 113 119 88 222 -14
59 -25 64 -34 16z"/>
<path d="M893 3020 c-17 -27 -59 -47 -116 -55 -91 -14 -146 -89 -147 -200 l0
-60 25 41 c27 46 49 62 116 87 60 23 103 70 124 134 19 57 17 85 -2 53z"/>
<path d="M1073 2839 c15 -9 17 -27 17 -150 0 -135 -1 -140 -22 -149 -17 -6 -7
-9 42 -9 49 0 59 3 43 9 -20 8 -23 17 -23 64 0 54 0 55 33 59 l32 4 -33 1 -33
2 3 83 3 82 35 6 c25 5 13 7 -40 7 -55 1 -70 -1 -57 -9z"/>
<path d="M1683 2839 c15 -9 17 -27 17 -150 0 -135 -1 -140 -22 -149 -17 -6 -7
-9 42 -9 49 0 59 3 43 9 -20 8 -23 17 -23 64 0 54 0 55 33 59 l32 4 -33 1 -33
2 3 83 3 82 35 6 c25 5 13 7 -40 7 -55 1 -70 -1 -57 -9z"/>
<path d="M1970 2843 c25 -10 27 -19 28 -151 1 -130 -2 -145 -28 -155 -8 -3 38
-6 103 -6 l117 -1 -1 48 c-1 45 -1 46 -10 16 -13 -46 -30 -56 -91 -52 l-53 3
-3 73 -3 72 30 0 c16 0 33 -5 37 -12 9 -14 22 15 23 47 0 19 -1 19 -16 -2 -10
-15 -26 -23 -45 -23 l-29 0 3 68 3 67 60 0 c60 0 60 0 72 -35 l12 -35 0 43 1
42 -112 -1 c-62 0 -106 -3 -98 -6z"/>
<path d="M2278 2840 c21 -9 22 -13 22 -150 0 -137 -1 -141 -22 -150 -16 -6 15
-9 97 -9 l121 -1 -5 43 c-3 23 -7 33 -9 21 -6 -38 -35 -55 -88 -52 l-49 3 -3
140 c-2 123 0 141 15 152 14 11 8 13 -43 12 -45 0 -54 -2 -36 -9z"/>
<path d="M2672 2825 c-8 -17 -9 -31 -2 -43 5 -9 19 -41 30 -69 l20 -53 -55 0
c-29 0 -56 -3 -58 -7 -3 -5 23 -7 57 -5 l62 4 16 -51 c15 -47 15 -52 0 -61
-13 -7 -4 -9 32 -10 46 0 48 1 34 18 -8 9 -38 80 -68 157 -29 77 -54 141 -55
143 -1 1 -7 -9 -13 -23z"/>
<path d="M2893 2843 c15 -4 17 -20 17 -148 0 -127 -2 -145 -17 -154 -14 -8 -3
-10 42 -10 46 0 55 2 38 9 -21 8 -23 16 -23 75 l0 65 34 0 c40 0 44 -5 71 -85
18 -54 23 -60 50 -63 24 -2 27 0 14 8 -10 5 -22 33 -29 60 -8 34 -20 56 -36
67 l-24 15 33 22 c28 19 32 27 32 66 0 41 -3 46 -35 62 -25 13 -57 18 -110 17
-41 -1 -67 -3 -57 -6z m149 -20 c23 -21 24 -89 1 -115 -10 -11 -30 -18 -55
-18 l-38 0 0 68 c0 38 3 72 7 75 12 13 67 7 85 -10z"/>
<path d="M3210 2843 c24 -9 25 -15 28 -150 3 -129 0 -145 -28 -156 -8 -3 12
-5 45 -6 46 0 55 2 38 9 -22 9 -23 14 -23 142 0 135 3 151 30 161 8 3 -12 5
-45 5 -33 0 -53 -2 -45 -5z"/>
<path d="M3456 2830 c-42 -27 -65 -76 -66 -138 0 -68 21 -117 62 -142 40 -24
61 -26 32 -2 -36 29 -54 76 -54 144 0 73 22 126 60 145 14 7 18 13 10 13 -8 0
-28 -9 -44 -20z"/>
<path d="M3578 2825 c72 -60 64 -245 -12 -284 -19 -10 -19 -11 4 -5 34 8 70
42 86 81 31 73 4 181 -55 216 -43 25 -57 21 -23 -8z"/>
<path d="M3780 2830 c-12 -12 -20 -33 -20 -54 0 -35 3 -38 109 -124 46 -37 53
-70 21 -102 -26 -26 -10 -26 24 1 20 16 26 29 26 58 0 40 -20 65 -90 111 -63
41 -76 76 -43 112 22 25 -2 23 -27 -2z"/>
<path d="M3921 2841 c0 -7 -7 -11 -15 -8 -11 5 -11 -2 3 -33 15 -36 16 -37 19
-15 2 14 1 35 -1 48 -2 12 -5 16 -6 8z"/>
<path d="M1224 2818 c23 -33 21 -103 -4 -128 -16 -16 -17 -20 -5 -20 9 0 27
11 40 25 34 33 34 93 2 123 -32 30 -53 29 -33 0z"/>
<path d="M1450 2803 c-22 -55 -23 -61 -7 -35 13 23 14 22 35 -36 12 -32 22
-62 22 -65 0 -3 -26 -8 -57 -10 l-58 -3 63 -2 c58 -2 63 -4 73 -29 22 -57 22
-81 3 -86 -11 -3 5 -5 34 -6 l53 -1 -20 28 c-10 15 -41 84 -67 155 -27 70 -51
127 -54 127 -3 0 -12 -17 -20 -37z"/>
<path d="M1836 2815 c21 -33 14 -113 -12 -132 -17 -12 -17 -13 0 -13 9 0 28
11 41 25 34 33 34 93 2 123 -33 31 -52 29 -31 -3z"/>
<path d="M4346 2797 c-10 -40 -44 -75 -105 -107 -32 -17 -67 -44 -79 -59 -22
-30 -42 -91 -42 -129 0 -23 0 -23 30 6 18 19 49 34 80 42 95 23 139 86 140
197 0 63 -13 91 -24 50z"/>
<path d="M837 2755 c-20 -25 -42 -39 -82 -50 -93 -27 -143 -114 -128 -223 6
-42 23 -69 23 -36 0 34 43 86 97 116 67 38 99 79 113 146 17 76 10 89 -23 47z"/>
<path d="M2111 2644 c0 -11 3 -14 6 -6 3 7 2 16 -1 19 -3 4 -6 -2 -5 -13z"/>
<path d="M3761 2585 c-1 -34 2 -41 18 -41 15 0 17 4 10 13 -6 6 -14 24 -19 40
-8 26 -8 26 -9 -12z"/>
<path d="M4361 2578 c-1 -30 -63 -89 -120 -114 -31 -14 -66 -34 -78 -46 -24
-22 -48 -79 -57 -137 l-6 -33 28 30 c25 27 83 52 122 52 32 0 82 42 100 83 24
55 34 126 21 157 -6 17 -10 19 -10 8z"/>
<path d="M1347 2554 l-18 -24 43 1 c30 0 37 3 24 8 -11 4 -22 15 -25 23 -5 13
-9 12 -24 -8z"/>
<path d="M2557 2554 l-18 -24 43 1 c30 0 37 3 24 8 -11 4 -22 15 -25 23 -5 13
-9 12 -24 -8z"/>
<path d="M839 2506 c-9 -18 -35 -42 -61 -56 -91 -50 -118 -90 -118 -173 0 -57
16 -117 31 -117 5 0 9 9 9 20 0 35 27 76 75 115 24 21 54 52 65 70 23 38 34
108 23 146 l-8 27 -16 -32z"/>
<path d="M4313 2280 c-26 -42 -60 -63 -128 -79 -84 -21 -128 -68 -156 -164
l-8 -30 22 20 c35 31 45 35 120 43 66 8 74 11 109 48 38 41 72 131 66 174 -3
21 -5 20 -25 -12z"/>
<path d="M880 2280 c0 -34 -22 -64 -74 -99 -24 -17 -51 -46 -60 -65 -28 -60
-17 -163 25 -217 l19 -24 0 43 c0 51 10 73 60 128 47 52 64 102 57 170 -6 60
-26 108 -27 64z"/>
<path d="M951 2037 c-1 -38 -15 -63 -67 -118 -26 -29 -45 -60 -49 -82 -9 -47
17 -133 52 -175 l28 -33 0 59 c0 51 5 66 31 103 59 82 66 147 25 234 -19 38
-19 39 -20 12z"/>
<path d="M4249 2024 c-30 -33 -78 -54 -124 -54 -72 0 -141 -44 -176 -112 -25
-49 -24 -52 8 -31 21 14 44 17 101 16 91 -3 131 12 170 66 28 38 60 126 50
136 -2 3 -15 -7 -29 -21z"/>
<path d="M1060 1798 c0 -25 -12 -54 -42 -99 -34 -51 -42 -71 -42 -108 1 -56
29 -113 79 -161 27 -25 34 -29 26 -13 -19 37 -13 110 14 163 38 76 31 160 -20
232 -15 22 -15 22 -15 -14z"/>
<path d="M4146 1771 c-26 -29 -81 -44 -134 -38 -72 8 -134 -16 -181 -70 -39
-44 -56 -78 -28 -55 24 19 74 23 130 8 94 -25 171 14 217 109 25 52 23 76 -4
46z"/>
<path d="M1198 1582 c3 -39 -2 -60 -22 -98 -29 -55 -33 -108 -12 -158 15 -35
72 -98 107 -116 20 -11 20 -10 5 17 -25 49 -29 96 -12 138 33 77 17 163 -42
234 l-27 33 3 -50z"/>
<path d="M3990 1529 c-38 -21 -92 -24 -155 -9 -59 14 -130 -9 -177 -57 l-37
-38 48 3 c34 3 64 -3 96 -17 26 -12 59 -21 73 -21 37 0 108 37 137 72 23 27
60 89 53 87 -2 0 -19 -9 -38 -20z"/>
<path d="M1373 1402 c9 -35 8 -51 -7 -96 -35 -102 -4 -187 89 -241 55 -33 61
-31 37 8 -24 38 -29 76 -19 139 12 70 -6 122 -63 182 l-48 51 11 -43z"/>
<path d="M2705 1421 c-23 -12 -33 -20 -22 -20 43 -2 76 -31 105 -93 16 -35 32
-76 36 -93 7 -28 21 -44 39 -45 11 0 8 199 -3 221 -13 23 -61 49 -92 49 -13 0
-41 -9 -63 -19z"/>
<path d="M2955 1383 c20 -38 19 -45 -15 -123 -33 -75 -38 -125 -16 -156 8 -10
17 -17 19 -14 3 3 26 44 51 92 55 105 59 144 19 187 -16 16 -38 32 -50 36 -22
6 -22 5 -8 -22z"/>
<path d="M2441 1388 c34 -29 40 -56 33 -157 -7 -98 -6 -100 19 -125 37 -37 47
-33 47 22 0 27 7 70 16 96 21 61 12 107 -27 140 -17 14 -36 26 -42 26 -7 0
-23 3 -37 6 -22 5 -23 4 -9 -8z"/>
<path d="M2220 1373 l-35 -16 38 -7 c48 -9 53 -14 103 -108 36 -68 83 -116 98
-102 2 3 -2 30 -9 60 -8 30 -17 73 -20 94 -9 55 -52 96 -102 96 -21 -1 -54 -8
-73 -17z"/>
<path d="M3483 1310 c-65 -37 -71 -47 -26 -42 27 3 53 -5 108 -33 62 -32 79
-36 113 -30 50 8 122 53 151 94 24 33 22 37 -10 20 -30 -16 -112 -13 -147 5
-51 26 -129 21 -189 -14z"/>
<path d="M2713 1266 c29 -29 63 -59 77 -65 14 -7 -2 12 -35 43 -81 76 -106 89
-42 22z"/>
<path d="M2640 1291 c16 -31 12 -52 -25 -125 -19 -39 -35 -84 -35 -102 0 -32
28 -77 60 -94 16 -8 17 -5 13 33 -4 33 2 54 25 97 40 74 47 112 28 148 -13 25
-55 62 -71 62 -3 0 -1 -9 5 -19z"/>
<path d="M1566 1255 c13 -20 15 -40 9 -117 -6 -87 -5 -95 17 -128 29 -42 94
-88 139 -97 l34 -6 -27 32 c-33 38 -49 90 -41 135 8 54 -34 136 -90 175 -55
37 -62 39 -41 6z"/>
<path d="M2089 1253 c-29 -24 -59 -77 -59 -102 0 -6 11 1 25 14 31 32 62 32
155 0 130 -44 156 -31 73 36 -112 90 -140 97 -194 52z"/>
<path d="M3110 1240 c0 -36 -6 -46 -52 -91 -29 -28 -65 -58 -80 -67 -46 -27
-33 -35 42 -29 104 9 150 44 150 114 0 23 -44 113 -55 113 -3 0 -5 -18 -5 -40z"/>
<path d="M3300 1187 c-19 -7 -48 -21 -65 -30 l-30 -16 31 -1 c17 0 48 -11 68
-25 20 -14 52 -36 72 -50 23 -15 51 -25 73 -25 44 0 128 38 159 72 l22 25 -54
-5 c-47 -4 -62 0 -108 26 -64 36 -121 46 -168 29z"/>
<path d="M2780 1154 c0 -14 -16 -55 -35 -91 -19 -36 -35 -70 -35 -74 0 -4 16
-1 35 7 19 7 43 14 54 14 29 0 44 97 21 139 -16 31 -40 34 -40 5z"/>
<path d="M1790 1118 c11 -18 20 -46 21 -63 1 -30 1 -30 8 -4 5 14 13 34 19 45
10 18 7 23 -24 37 -46 22 -47 22 -24 -15z"/>
<path d="M2141 1100 c-79 -12 -119 -81 -91 -154 11 -30 40 -35 40 -8 0 24 41
60 122 108 37 21 68 45 68 52 0 13 -63 15 -139 2z"/>
<path d="M2300 1078 l-35 -22 37 -7 c20 -5 64 -26 99 -49 40 -26 74 -40 95
-40 35 0 84 18 84 31 0 23 -15 39 -36 39 -13 0 -53 16 -90 35 -76 41 -106 43
-154 13z"/>
<path d="M2896 1065 c4 -8 13 -15 21 -15 13 0 13 3 3 15 -7 8 -16 15 -21 15
-5 0 -6 -7 -3 -15z"/>
<path d="M3164 1058 c-4 -7 -7 -27 -6 -45 2 -28 -1 -33 -24 -39 -27 -7 -46 -2
-150 37 -55 21 -65 22 -90 10 -27 -12 -28 -14 -10 -25 32 -19 100 -65 135 -91
43 -31 82 -32 117 -1 24 20 33 22 61 14 37 -10 95 2 155 33 53 27 53 35 -1 36
-53 1 -80 12 -129 54 -36 32 -47 35 -58 17z"/>
<path d="M2171 974 l-23 -17 36 -12 c20 -7 60 -31 90 -54 30 -23 70 -44 88
-48 40 -6 92 16 107 46 9 17 6 19 -38 23 -32 3 -63 15 -96 38 -59 40 -127 51
-164 24z"/>
<path d="M2751 971 c-12 -8 -8 -15 19 -37 18 -16 48 -51 66 -80 42 -66 90 -91
144 -75 21 6 43 18 50 26 11 13 10 14 -3 10 -26 -10 -73 21 -111 75 -54 76
-121 108 -165 81z"/>
<path d="M2608 953 c-23 -6 -23 -15 1 -30 11 -7 36 -46 55 -87 49 -104 88
-130 164 -110 23 7 23 7 -7 25 -19 11 -43 44 -65 86 -48 95 -92 130 -148 116z"/>
<path d="M2507 909 c-28 -49 -6 -141 45 -189 16 -15 35 -20 72 -20 50 1 50 1
25 15 -27 15 -59 69 -59 102 -1 24 -33 95 -51 110 -12 9 -18 6 -32 -18z"/>
<path d="M3170 889 c-7 -13 -11 -54 -8 -106 3 -81 4 -86 36 -114 20 -18 43
-29 62 -29 17 0 30 2 30 4 0 2 -8 24 -19 48 -10 24 -22 66 -26 93 -7 55 -34
116 -52 122 -6 2 -17 -6 -23 -18z"/>
<path d="M2046 887 c-19 -14 -19 -15 13 -31 17 -9 56 -39 87 -66 48 -44 59
-50 99 -50 36 0 51 6 77 30 l33 29 -40 1 c-39 0 -50 5 -133 63 -49 34 -109 45
-136 24z"/>
<path d="M3294 865 c14 -13 27 -32 27 -42 1 -10 2 -53 3 -95 1 -81 20 -123 61
-138 19 -7 20 -3 20 114 -1 66 -4 129 -9 139 -11 24 -58 47 -97 47 l-32 0 27
-25z"/>
<path d="M3468 835 c25 -31 27 -61 11 -150 -11 -55 -10 -67 7 -101 19 -38 60
-66 119 -80 28 -7 29 -7 12 10 -24 24 -11 39 27 32 22 -4 27 -3 16 4 -8 5 -27
10 -42 10 -20 0 -26 4 -22 14 3 8 13 17 22 19 11 3 9 5 -7 6 -19 1 -21 4 -12
15 9 10 8 15 -4 20 -22 8 -18 25 8 35 l22 9 -25 10 -25 10 28 7 c21 6 25 10
15 16 -8 6 1 9 27 10 l40 1 -35 7 c-53 11 -67 21 -46 36 15 11 14 13 -9 19
-14 4 -25 11 -25 17 0 6 9 8 23 4 56 -16 59 -14 13 11 -27 14 -73 28 -104 31
l-56 6 22 -28z"/>
<path d="M1937 817 c15 -18 35 -52 43 -76 21 -65 62 -101 113 -101 25 0 56 9
77 21 32 20 33 23 15 30 -11 4 -32 10 -47 13 -14 3 -41 23 -60 43 -79 88 -98
103 -135 103 l-35 0 29 -33z"/>
<path d="M1750 833 c0 -5 11 -18 24 -31 13 -12 33 -53 45 -90 29 -96 73 -131
147 -117 32 6 48 25 21 25 -24 0 -65 54 -87 112 -26 69 -67 108 -116 108 -19
0 -34 -3 -34 -7z"/>
<path d="M1356 821 c-4 -6 -2 -11 3 -11 6 0 11 -7 11 -15 0 -8 -7 -15 -15 -15
-8 0 -15 -5 -15 -11 0 -7 10 -9 25 -5 18 5 25 2 25 -8 0 -8 -10 -17 -22 -19
-16 -3 -12 -5 12 -6 27 -1 31 -4 20 -11 -13 -8 -11 -11 8 -16 28 -8 28 -19 1
-38 l-21 -14 23 -4 24 -5 -24 -10 c-23 -9 -23 -10 -5 -18 17 -7 17 -8 -6 -15
-22 -7 -21 -8 13 -9 40 -1 48 -14 20 -30 -15 -9 -12 -10 15 -11 42 0 32 -20
-11 -21 -31 -1 -31 -1 -7 -9 32 -10 98 -12 139 -4 l31 6 -29 34 c-23 25 -31
46 -35 91 -9 83 -27 133 -56 154 -31 22 -115 36 -124 20z"/>
<path d="M1593 796 c14 -13 29 -35 32 -48 2 -12 10 -45 15 -73 6 -27 18 -61
26 -73 20 -31 75 -53 113 -46 l30 6 -34 32 c-21 20 -37 48 -44 76 -28 113 -61
150 -133 150 l-31 0 26 -24z"/>
<path d="M2385 799 c-16 -12 -32 -24 -33 -25 -2 -1 -1 -12 3 -23 8 -27 54 -51
96 -51 31 0 31 0 10 18 -12 9 -27 37 -34 60 l-12 44 -30 -23z"/>
<path d="M3037 774 c-32 -21 -36 -28 -27 -44 14 -27 49 -48 91 -56 l34 -7 -19
21 c-11 12 -24 42 -30 67 l-12 45 -37 -26z"/>
<path d="M2928 753 c7 -3 16 -2 19 1 4 3 -2 6 -13 5 -11 0 -14 -3 -6 -6z"/>
</g>
</svg>
